<svg width="20" height="21" viewBox="0 0 20 21" fill="none" xmlns="http://www.w3.org/2000/svg">
<g clipPath="url(#clip0_1046_3525)">
<path d="M18.5774 15.2621L17.5532 16.2862L15.6241 14.3571C17.3774 12.3337 18.3332 10.4046 18.3332 8.7504C18.3744 7.49143 17.9154 6.26738 17.0565 5.34599C16.1975 4.4246 15.0087 3.88087 13.7499 3.83373C13.1162 3.83809 12.4907 3.97825 11.9157 4.24476C11.3407 4.51127 10.8295 4.89795 10.4166 5.37873C10.0038 4.89783 9.49259 4.51106 8.91756 4.24454C8.34253 3.97801 7.71702 3.83793 7.08325 3.83373C6.51719 3.83497 5.95697 3.94826 5.43491 4.16707L2.13408 0.866234C1.89958 0.631738 1.58154 0.5 1.24991 0.5C0.918285 0.5 0.600241 0.631738 0.365746 0.866234C0.13125 1.10073 -0.000488281 1.41877 -0.000488281 1.7504C-0.000488281 2.08203 0.13125 2.40007 0.365746 2.63457L3.46908 5.73707C2.83569 6.61385 2.4964 7.66877 2.49991 8.7504C2.49991 11.1546 4.47575 14.1354 8.06324 17.1437C8.72237 17.6975 9.55569 18.0011 10.4166 18.0011C11.2775 18.0011 12.1108 17.6975 12.7699 17.1437C13.1641 16.8104 13.5307 16.4837 13.8857 16.1546L15.7857 18.0546L14.7616 19.0787C14.6453 19.1954 14.5661 19.344 14.5342 19.5056C14.5023 19.6673 14.519 19.8347 14.5822 19.9869C14.6455 20.139 14.7524 20.269 14.8895 20.3604C15.0265 20.4518 15.1876 20.5005 15.3524 20.5004L19.1666 20.4921C19.3876 20.4921 19.5996 20.4043 19.7558 20.248C19.9121 20.0917 19.9999 19.8797 19.9999 19.6587V15.8512C19.9999 15.6864 19.951 15.5254 19.8594 15.3884C19.7678 15.2513 19.6377 15.1446 19.4855 15.0815C19.3332 15.0184 19.1657 15.0019 19.0041 15.0341C18.8424 15.0662 18.694 15.1456 18.5774 15.2621ZM11.1607 15.2271C10.9501 15.3996 10.6863 15.4938 10.4141 15.4938C10.1418 15.4938 9.87801 15.3996 9.66741 15.2271C6.22658 12.3404 4.99991 9.98873 4.99991 8.7504C4.95985 8.15461 5.15599 7.56701 5.54588 7.11474C5.93577 6.66247 6.48806 6.38189 7.08325 6.33373C7.67843 6.38189 8.23072 6.66247 8.62061 7.11474C9.0105 7.56701 9.20664 8.15461 9.16658 8.7504C9.16658 8.91455 9.19891 9.0771 9.26173 9.22875C9.32455 9.38041 9.41662 9.51821 9.53269 9.63428C9.64877 9.75036 9.78657 9.84243 9.93822 9.90525C10.0899 9.96807 10.2524 10.0004 10.4166 10.0004C10.5807 10.0004 10.7433 9.96807 10.8949 9.90525C11.0466 9.84243 11.1844 9.75036 11.3005 9.63428C11.4165 9.51821 11.5086 9.38041 11.5714 9.22875C11.6342 9.0771 11.6666 8.91455 11.6666 8.7504C11.6263 8.15456 11.8224 7.56684 12.2123 7.11452C12.6022 6.6622 13.1546 6.38168 13.7499 6.33373C14.3452 6.38168 14.8976 6.6622 15.2875 7.11452C15.6775 7.56684 15.8735 8.15456 15.8332 8.7504C15.8332 9.98873 14.6066 12.3404 11.1666 15.2271H11.1607Z" fill="#131313"/>
</g>
<defs>
<clipPath id="clip0_1046_3525">
<rect width="20" height="20" fill="white" transform="translate(0 0.5)"/>
</clipPath>
</defs>
</svg>
