<svg width="24" height="24" viewBox="0 0 24 24" fill="none" xmlns="http://www.w3.org/2000/svg">
<path d="M4.08791 20.9127H9.13186V13.252H14.8681V20.9127H19.9121V9.05107L12 3.06261L4.08791 9.04557V20.9127ZM4.08791 22C3.79779 22 3.54394 21.8913 3.32638 21.6738C3.10879 21.4564 3 21.2027 3 20.9127V9.05107C3 8.88194 3.03541 8.72172 3.10623 8.57041C3.17705 8.4191 3.28725 8.29376 3.43682 8.19438L11.3489 2.20592C11.4526 2.13454 11.5583 2.08237 11.6661 2.04941C11.7739 2.01647 11.8861 2 12.0029 2C12.1197 2 12.2314 2.01647 12.3381 2.04941C12.4449 2.08237 12.5492 2.13454 12.6511 2.20592L20.5632 8.19438C20.7127 8.29376 20.8229 8.4191 20.8938 8.57041C20.9646 8.72172 21 8.88194 21 9.05107V20.9127C21 21.2027 20.8912 21.4564 20.6736 21.6738C20.4561 21.8913 20.2022 22 19.9121 22H13.7802V14.3394H10.2198V22H4.08791Z" fill="white"/>
</svg>
