<svg width="24" height="24" viewBox="0 0 24 24" fill="none" xmlns="http://www.w3.org/2000/svg">
<path d="M5.88889 14.3018H13.6082V13.3108H5.88889V14.3018ZM5.88889 10.6982H18.1111V9.70721H5.88889V10.6982ZM5.88889 7.09459H18.1111V6.10361H5.88889V7.09459ZM2 22V3.7117C2 3.23196 2.15687 2.82675 2.47061 2.49605C2.78435 2.16535 3.16879 2 3.62392 2H20.3761C20.8312 2 21.2156 2.16535 21.5294 2.49605C21.8431 2.82675 22 3.23196 22 3.7117V16.6847C22 17.1644 21.8431 17.5696 21.5294 17.9003C21.2156 18.231 20.8312 18.3964 20.3761 18.3964H5.41881L2 22ZM5.00711 17.4054H20.3761C20.547 17.4054 20.7037 17.3303 20.8462 17.1802C20.9886 17.03 21.0598 16.8649 21.0598 16.6847V3.7117C21.0598 3.53151 20.9886 3.36635 20.8462 3.2162C20.7037 3.06606 20.547 2.99099 20.3761 2.99099H3.62392C3.45297 2.99099 3.29628 3.06606 3.15383 3.2162C3.01139 3.36635 2.94017 3.53151 2.94017 3.7117V19.6389L5.00711 17.4054Z" fill="white"/>
</svg>
