<svg width="29" height="29" viewBox="0 0 29 29" fill="none" xmlns="http://www.w3.org/2000/svg">
<path d="M14.1221 28.2609C13.8592 28.2609 13.6415 28.1727 13.4692 27.9965C13.2969 27.8202 13.2107 27.6017 13.2107 27.3411V15.0502H0.919729C0.659149 15.0502 0.440707 14.9612 0.264403 14.7834C0.0881344 14.6055 0 14.3851 0 14.1221C0 13.8592 0.0881344 13.6415 0.264403 13.4692C0.440707 13.2969 0.659149 13.2107 0.919729 13.2107H13.2107V0.919727C13.2107 0.659147 13.2996 0.440706 13.4775 0.264402C13.6554 0.0881335 13.8758 0 14.1388 0C14.4017 0 14.6193 0.0881335 14.7917 0.264402C14.964 0.440706 15.0502 0.659147 15.0502 0.919727V13.2107H27.3411C27.6017 13.2107 27.8202 13.2996 27.9965 13.4775C28.1727 13.6554 28.2609 13.8758 28.2609 14.1388C28.2609 14.4017 28.1727 14.6193 27.9965 14.7917C27.8202 14.964 27.6017 15.0502 27.3411 15.0502H15.0502V27.3411C15.0502 27.6017 14.9612 27.8202 14.7834 27.9965C14.6055 28.1727 14.3851 28.2609 14.1221 28.2609Z" fill="#131313"/>
</svg>
